#define full_width 8
#define full_height 8
static unsigned char full_bits[] = {
   0xff, 0xff, 0xc3, 0xc3, 0xc3, 0xc3, 0xff, 0xff };
