#define grid_width 8
#define grid_height 8
static unsigned char grid_bits[] = {
   0x00, 0x77, 0x77, 0x77, 0x00, 0x77, 0x77, 0x77 };
