#define spiral_width 8
#define spiral_height 8
static unsigned char spiral_bits[] = {
   0xfb, 0xfb, 0xfb, 0xfb, 0x03, 0xdb, 0xc3, 0xdb };
